<svg width="33" height="27" viewBox="0 0 33 27" fill="none" xmlns="http://www.w3.org/2000/svg">
<g clip-path="url(#clip0_193_1157)">
<path d="M32.6987 0.2462C32.8415 0.363198 32.9391 0.511938 32.9795 0.673943C33.0198 0.835949 33.0011 1.00408 32.9256 1.15745L20.9239 25.7055C20.8182 25.9217 20.6416 26.1098 20.4135 26.2492C20.1855 26.3885 19.9149 26.4737 19.6315 26.4953C19.3482 26.517 19.063 26.4742 18.8074 26.3718C18.5518 26.2694 18.3357 26.1112 18.1829 25.9148L11.6283 17.4857L1.32606 12.1228C1.0854 11.9979 0.891599 11.821 0.766031 11.6117C0.640462 11.4024 0.588012 11.1688 0.614468 10.9366C0.640924 10.7044 0.745258 10.4828 0.915956 10.296C1.08665 10.1093 1.31708 9.9648 1.58181 9.87845L31.585 0.062263C31.7725 0.000521175 31.9779 -0.0148009 32.176 0.0182002C32.374 0.0512012 32.5558 0.131071 32.6987 0.247888V0.2462ZM13.6866 16.9929L19.3812 24.3133L29.143 4.34683L13.6866 16.9929ZM27.6848 3.15376L3.28131 11.1407L12.2305 15.7982L27.6848 3.15376Z" fill="white"/>
</g>
<defs>
<clipPath id="clip0_193_1157">
<rect width="33" height="27" fill="white"/>
</clipPath>
</defs>
</svg>
