<svg width="21" height="20" viewBox="0 0 21 20" fill="none" xmlns="http://www.w3.org/2000/svg">
<g clip-path="url(#clip0_171_1133)">
<path d="M16.0777 18.2335H2.15096V3.09578H10.6584L11.8827 1.91625L11.8512 1.88476H2.15096C1.48217 1.88476 0.939941 2.42699 0.939941 3.09578V18.2335C0.939941 18.9023 1.48217 19.4445 2.15096 19.4445H16.0777C16.7465 19.4445 17.2887 18.9023 17.2887 18.2335V9.36552L16.0777 10.5214V18.2335ZM19.3868 0.846917C18.8403 0.323152 18.2372 0.0576172 17.5939 0.0576172C16.5869 0.0576172 15.8524 0.707934 15.6526 0.907165C15.3692 1.18691 7.34261 9.20175 7.34261 9.20175C7.27964 9.26591 7.23362 9.34433 7.21001 9.43152C6.99263 10.2347 5.90302 13.8024 5.89212 13.8378C5.8358 14.0207 5.88606 14.2199 6.02079 14.3528C6.06771 14.3999 6.12349 14.4373 6.18491 14.4627C6.24632 14.4882 6.31217 14.5013 6.37866 14.5012C6.43074 14.5012 6.48311 14.4936 6.53456 14.4775C6.5715 14.4651 10.2527 13.2747 10.8585 13.094C10.9384 13.0703 11.0108 13.0271 11.0707 12.9686C11.4531 12.5914 18.8309 5.328 19.428 4.71129C20.0453 4.0743 20.3523 3.41216 20.3405 2.74155C20.3293 2.07913 20.0071 1.44153 19.3868 0.846917ZM18.5582 3.86839C18.2212 4.21595 15.5827 6.82327 10.7159 11.6177L10.3435 11.9849C9.78552 12.1575 8.44945 12.5868 7.43946 12.9126C7.76462 11.8387 8.15487 10.5414 8.32895 9.92774C9.36893 8.88929 16.2457 2.02312 16.5069 1.76517C16.5578 1.71429 17.0219 1.26833 17.5938 1.26833C17.9184 1.26833 18.2311 1.41638 18.5487 1.72095C18.9284 2.08516 19.124 2.43515 19.1294 2.76212C19.1355 3.09879 18.9432 3.47087 18.5582 3.86839Z" fill="#B8B66E"/>
</g>
<defs>
<clipPath id="clip0_171_1133">
<rect width="19.3763" height="19.3763" fill="white" transform="translate(0.951782 0.0654297)"/>
</clipPath>
</defs>
</svg>
